<svg width="25" height="24" viewBox="0 0 25 24" fill="none" xmlns="http://www.w3.org/2000/svg">
<path d="M11.166 7.25C11.0334 7.25 10.9062 7.30268 10.8125 7.39645C10.7187 7.49021 10.666 7.61739 10.666 7.75C10.666 7.88261 10.7187 8.00979 10.8125 8.10355C10.9062 8.19732 11.0334 8.25 11.166 8.25H14.166C14.2986 8.25 14.4258 8.19732 14.5196 8.10355C14.6133 8.00979 14.666 7.88261 14.666 7.75C14.666 7.61739 14.6133 7.49021 14.5196 7.39645C14.4258 7.30268 14.2986 7.25 14.166 7.25H11.166ZM10.166 12.75C10.166 13.0152 10.0607 13.2696 9.87312 13.4571C9.68559 13.6446 9.43123 13.75 9.16602 13.75C8.9008 13.75 8.64645 13.6446 8.45891 13.4571C8.27137 13.2696 8.16602 13.0152 8.16602 12.75C8.16602 12.4848 8.27137 12.2304 8.45891 12.0429C8.64645 11.8554 8.9008 11.75 9.16602 11.75C9.43123 11.75 9.68559 11.8554 9.87312 12.0429C10.0607 12.2304 10.166 12.4848 10.166 12.75ZM10.166 16.25C10.166 16.5152 10.0607 16.7696 9.87312 16.9571C9.68559 17.1446 9.43123 17.25 9.16602 17.25C8.9008 17.25 8.64645 17.1446 8.45891 16.9571C8.27137 16.7696 8.16602 16.5152 8.16602 16.25C8.16602 15.9848 8.27137 15.7304 8.45891 15.5429C8.64645 15.3554 8.9008 15.25 9.16602 15.25C9.43123 15.25 9.68559 15.3554 9.87312 15.5429C10.0607 15.7304 10.166 15.9848 10.166 16.25ZM12.666 13.75C12.9312 13.75 13.1856 13.6446 13.3731 13.4571C13.5607 13.2696 13.666 13.0152 13.666 12.75C13.666 12.4848 13.5607 12.2304 13.3731 12.0429C13.1856 11.8554 12.9312 11.75 12.666 11.75C12.4008 11.75 12.1464 11.8554 11.9589 12.0429C11.7714 12.2304 11.666 12.4848 11.666 12.75C11.666 13.0152 11.7714 13.2696 11.9589 13.4571C12.1464 13.6446 12.4008 13.75 12.666 13.75ZM13.666 16.25C13.666 16.5152 13.5607 16.7696 13.3731 16.9571C13.1856 17.1446 12.9312 17.25 12.666 17.25C12.4008 17.25 12.1464 17.1446 11.9589 16.9571C11.7714 16.7696 11.666 16.5152 11.666 16.25C11.666 15.9848 11.7714 15.7304 11.9589 15.5429C12.1464 15.3554 12.4008 15.25 12.666 15.25C12.9312 15.25 13.1856 15.3554 13.3731 15.5429C13.5607 15.7304 13.666 15.9848 13.666 16.25ZM16.166 13.75C16.4312 13.75 16.6856 13.6446 16.8731 13.4571C17.0607 13.2696 17.166 13.0152 17.166 12.75C17.166 12.4848 17.0607 12.2304 16.8731 12.0429C16.6856 11.8554 16.4312 11.75 16.166 11.75C15.9008 11.75 15.6464 11.8554 15.4589 12.0429C15.2714 12.2304 15.166 12.4848 15.166 12.75C15.166 13.0152 15.2714 13.2696 15.4589 13.4571C15.6464 13.6446 15.9008 13.75 16.166 13.75Z" fill="#E4E3E6"/>
<path fill-rule="evenodd" clip-rule="evenodd" d="M8.66602 3.5C8.79862 3.5 8.9258 3.55268 9.01957 3.64645C9.11334 3.74021 9.16602 3.86739 9.16602 4V5H16.166V4C16.166 3.86739 16.2187 3.74021 16.3125 3.64645C16.4062 3.55268 16.5334 3.5 16.666 3.5C16.7986 3.5 16.9258 3.55268 17.0196 3.64645C17.1133 3.74021 17.166 3.86739 17.166 4V5.003C17.4107 5.005 17.6287 5.01367 17.82 5.029C18.185 5.059 18.505 5.122 18.801 5.272C19.2713 5.51189 19.6536 5.89451 19.893 6.365C20.044 6.661 20.107 6.981 20.137 7.345C20.166 7.7 20.166 8.137 20.166 8.679V16.321C20.166 16.863 20.166 17.301 20.137 17.654C20.107 18.019 20.044 18.339 19.893 18.635C19.6534 19.1051 19.2711 19.4874 18.801 19.727C18.505 19.878 18.185 19.941 17.821 19.971C17.466 20 17.029 20 16.488 20H8.84502C8.30302 20 7.86502 20 7.51202 19.971C7.14702 19.941 6.82702 19.878 6.53102 19.727C6.06052 19.4875 5.67791 19.1053 5.43802 18.635C5.28802 18.339 5.22502 18.019 5.19502 17.655C5.16602 17.3 5.16602 16.862 5.16602 16.32V8.68C5.16602 8.205 5.16602 7.812 5.18602 7.483L5.19502 7.347C5.22502 6.982 5.28802 6.662 5.43802 6.366C5.67774 5.89535 6.06037 5.51272 6.53102 5.273C6.82702 5.123 7.14702 5.06 7.51102 5.03C7.70368 5.01467 7.92202 5.006 8.16602 5.004V4C8.16602 3.86739 8.21869 3.74021 8.31246 3.64645C8.40623 3.55268 8.53341 3.5 8.66602 3.5ZM8.16602 6.5V6.003C7.97482 6.00458 7.78372 6.01225 7.59302 6.026C7.29102 6.05 7.11702 6.096 6.98502 6.163C6.70252 6.30685 6.47287 6.53651 6.32902 6.819C6.26202 6.951 6.21602 7.125 6.19202 7.427C6.16602 7.736 6.16602 8.132 6.16602 8.7V9.25H19.166V8.7C19.166 8.132 19.166 7.736 19.14 7.427C19.116 7.125 19.07 6.951 19.003 6.819C18.8592 6.53651 18.6295 6.30685 18.347 6.163C18.215 6.096 18.041 6.05 17.739 6.026C17.5483 6.01225 17.3572 6.00458 17.166 6.003V6.5C17.166 6.63261 17.1133 6.75979 17.0196 6.85355C16.9258 6.94732 16.7986 7 16.666 7C16.5334 7 16.4062 6.94732 16.3125 6.85355C16.2187 6.75979 16.166 6.63261 16.166 6.5V6H9.16602V6.5C9.16602 6.63261 9.11334 6.75979 9.01957 6.85355C8.9258 6.94732 8.79862 7 8.66602 7C8.53341 7 8.40623 6.94732 8.31246 6.85355C8.21869 6.75979 8.16602 6.63261 8.16602 6.5ZM19.166 10.25H6.16602V16.3C6.16602 16.868 6.16602 17.265 6.19202 17.573C6.21602 17.875 6.26202 18.049 6.32902 18.181C6.47287 18.4635 6.70252 18.6931 6.98502 18.837C7.11702 18.904 7.29102 18.95 7.59302 18.974C7.90202 19 8.29802 19 8.86602 19H16.466C17.034 19 17.431 19 17.739 18.974C18.041 18.95 18.215 18.904 18.347 18.837C18.6295 18.6931 18.8592 18.4635 19.003 18.181C19.07 18.049 19.116 17.875 19.14 17.573C19.166 17.265 19.166 16.868 19.166 16.3V10.25Z" fill="#E4E3E6"/>
</svg>
