<svg width="25" height="24" viewBox="0 0 25 24" fill="none" xmlns="http://www.w3.org/2000/svg">
<path d="M13.114 20.8197C12.9835 20.937 12.8268 21 12.666 21C12.5053 21 12.3486 20.937 12.218 20.8197C8.35469 17.3778 4.25457 10.2979 8.39949 5.18197C9.5374 3.78284 11.0698 2.99912 12.666 3C14.2661 3 15.8013 3.78499 16.9325 5.18097C21.0775 10.2969 16.9773 17.3758 13.114 20.8197Z" stroke="#E4E3E6" stroke-linecap="round" stroke-linejoin="round"/>
<path d="M12.666 12C13.1964 12 13.7052 11.7893 14.0802 11.4142C14.4553 11.0391 14.666 10.5304 14.666 10C14.666 9.46957 14.4553 8.96086 14.0802 8.58579C13.7052 8.21071 13.1964 8 12.666 8C12.1356 8 11.6269 8.21071 11.2518 8.58579C10.8767 8.96086 10.666 9.46957 10.666 10C10.666 10.5304 10.8767 11.0391 11.2518 11.4142C11.6269 11.7893 12.1356 12 12.666 12Z" stroke="#E4E3E6" stroke-linecap="round" stroke-linejoin="round"/>
</svg>
