<svg width="361" height="358" viewBox="0 0 361 358" fill="none" xmlns="http://www.w3.org/2000/svg">
<g clip-path="url(#clip0_20_1391)">
<path d="M64.4275 50.8925L49.6411 64.0614H92.6131L84.758 57.3615C74.7775 50.5229 67.0458 50.1995 64.4275 50.8925Z" stroke="black" stroke-width="2.91964"/>
<path d="M32.0342 70.3383C64.9326 12.7247 223.668 -56.8999 331.348 70.3383L32.0342 70.3383Z" fill="#008CE1"/>
<path d="M219.991 33.6084C246.025 35.5018 275.859 61.8579 284.833 70.437H328.32C325.657 65.9994 285.602 23.5501 246.616 23.55C216.142 23.55 216.244 28.8751 219.991 33.6084Z" fill="#18A6FC" fill-opacity="0.8"/>
<path d="M304.95 54.1232L317.841 55.5735L331.348 70.0321H270.945L259.171 61.0754C256.946 59.3828 258.143 55.8321 260.939 55.8321H273.896C277.872 55.8321 281.805 56.644 285.456 58.218L291.587 60.8613H298.457V59.9259C298.457 56.4424 301.488 53.7338 304.95 54.1232Z" fill="#82D5FF" fill-opacity="0.8"/>
<path d="M144.343 37.0036C141.69 26.3967 118.881 12.1643 109.539 13.515C100.196 14.8656 48.6467 41.3921 34.0669 69.6287H250.533C225.077 45.385 167.449 22.6086 144.343 37.0036Z" fill="#1CA7FF" fill-opacity="0.58"/>
<path d="M128.811 45.3372C123.052 33.2153 102.043 22.9624 93.3306 20.437C75.7464 26.2984 37.9569 58.0029 36.8711 69.7624L210.828 70.0321C185.372 45.7883 144.216 42.3067 128.811 45.3372Z" fill="#46B9F6"/>
<path d="M170.24 59.8028C133.829 50.7464 127.989 62.6114 129.224 69.069C150.694 69.069 188.403 70.328 192.025 69.069C193.331 68.6149 176.092 61.4312 170.24 59.8028Z" fill="#ADE1FA" fill-opacity="0.5"/>
<path d="M54.7248 44.5474C47.3648 50.0604 36.0857 62.2459 32.4097 70.3024H102.757L95.7649 66.6489L54.7248 44.5474Z" fill="#AFE2F7"/>
<path fill-rule="evenodd" clip-rule="evenodd" d="M121.347 174.855H-3.7373C-3.7373 235.925 16.9415 281.593 47.634 313.001L121.347 174.855ZM95.6358 347.564C121.7 360.328 150.194 366.521 177.586 366.521C210.778 366.521 243.713 357.539 272.559 340.893L184.871 175.889L95.6358 347.564ZM317.72 304.623L269.633 213.304L249.386 174.855H366.446C366.446 227.84 347.403 272.059 317.72 304.623Z" fill="url(#paint0_linear_20_1391)"/>
<path fill-rule="evenodd" clip-rule="evenodd" d="M153.87 99.2852H22.4455C16.0816 108.68 11.4598 120.12 9.94434 124.665H141.468L153.87 99.2852ZM224.722 124.665L212.419 99.2852H342.712C345.784 104.119 352.219 115.961 353.383 124.665H224.722Z" fill="#8DCFE9" fill-opacity="0.56"/>
<path d="M268.689 124.887L248.905 99.324H212.581L227.184 124.887H268.689Z" fill="#79CDF8"/>
<path d="M123.471 124.557L114.417 99.2495H21.991C19.2547 102.275 12.9078 115.802 10.1714 124.557H123.471Z" fill="#AEE2FA"/>
<path d="M290.515 124.791C290.515 120.288 289.715 109.933 278.246 99.1523H342.908L346.3 105.024L349.691 112.257L352.02 118.756L353.437 124.791H290.515Z" fill="#82D5FF"/>
<path d="M268.15 124.915L295.025 124.849L289.896 112.185L281.656 99.2158H248.379L268.15 124.915Z" fill="#0988D7" fill-opacity="0.8"/>
<path d="M122.948 124.598L113.276 99.2446H129.688L146.459 113.903L140.605 124.598H122.948Z" fill="#46B9F6"/>
<path d="M153.471 99.3051L129.665 99.2429L146.378 114.103L153.471 99.3051Z" fill="#79CDF8"/>
</g>
<defs>
<linearGradient id="paint0_linear_20_1391" x1="181.354" y1="174.855" x2="181.354" y2="366.521" gradientUnits="userSpaceOnUse">
<stop stop-color="#C506F2"/>
<stop offset="1" stop-color="#4530CD"/>
</linearGradient>
<clipPath id="clip0_20_1391">
<rect x="0.55957" y="0.634521" width="359.459" height="356.757" rx="178.378" fill="white"/>
</clipPath>
</defs>
</svg>
