<svg width="12" height="12" viewBox="0 0 12 12" fill="none" xmlns="http://www.w3.org/2000/svg">
<g clip-path="url(#clip0_7567_9412)">
<path d="M2.24609 6.4499C2.24609 6.41552 2.24609 6.3981 2.24699 6.38382C2.25402 6.27563 2.30017 6.1737 2.37683 6.09705C2.45349 6.02039 2.55542 5.97424 2.6636 5.9672C2.67834 5.96631 2.69486 5.96631 2.72969 5.96631H9.80006C9.83444 5.96631 9.85141 5.96631 9.86614 5.9672C9.97433 5.97424 10.0763 6.02039 10.1529 6.09705C10.2296 6.1737 10.2757 6.27563 10.2828 6.38382C10.2836 6.3981 10.2836 6.41507 10.2836 6.4499C10.2836 6.62628 10.2836 6.71469 10.2774 6.81382C10.1841 8.28157 8.93647 9.5774 7.47318 9.7252C7.3745 9.73548 7.3169 9.73771 7.20169 9.74217C6.88957 9.75447 6.57724 9.76102 6.26487 9.76182C5.97463 9.76182 5.6558 9.75423 5.32805 9.74217C5.21285 9.73771 5.15524 9.73548 5.05701 9.72565C3.59328 9.5774 2.34567 8.28157 2.25279 6.81382C2.24609 6.71469 2.24609 6.62628 2.24609 6.4499Z" stroke="white" stroke-width="0.446531"/>
<path d="M3.5869 9.53856L3.14037 10.4316M8.94527 9.53856L9.39181 10.4316M1.80078 5.96631H10.7314" stroke="white" stroke-width="0.446531" stroke-linecap="round"/>
<path d="M2.24609 6.41293V2.39415C2.24609 1.2778 3.54103 0.741984 4.25548 2.17088" stroke="white" stroke-width="0.446531"/>
<path d="M5.91266 2.30166C4.27941 1.39137 3.71844 2.42185 3.61038 3.3028C3.59099 3.46093 3.75192 3.56913 3.89898 3.50785L5.88394 2.68079C6.04855 2.6122 6.06843 2.38847 5.91266 2.30166Z" stroke="white" stroke-width="0.446531"/>
</g>
<defs>
<clipPath id="clip0_7567_9412">
<rect width="10.7167" height="10.7167" fill="white" transform="translate(0.90625 0.608154)"/>
</clipPath>
</defs>
</svg>
