<svg width="11" height="12" viewBox="0 0 11 12" fill="none" xmlns="http://www.w3.org/2000/svg">
<path d="M1.48047 8.64573V6.41307C1.48047 6.2809 1.51857 6.14009 1.59478 5.99065C1.67099 5.84121 1.78173 5.72899 1.927 5.65397V4.62695C1.927 4.37511 2.01288 4.1633 2.18465 3.99154C2.35641 3.81977 2.56822 3.73389 2.82006 3.73389H4.82945C4.98335 3.73389 5.11478 3.76559 5.22374 3.829C5.33239 3.89211 5.42423 3.97948 5.49925 4.09111C5.57426 3.97948 5.6661 3.89211 5.77476 3.829C5.88371 3.76559 6.01514 3.73389 6.16904 3.73389H8.17843C8.43028 3.73389 8.64208 3.81977 8.81385 3.99154C8.98561 4.1633 9.07149 4.37511 9.07149 4.62695V5.65397C9.21706 5.72899 9.3278 5.84121 9.40371 5.99065C9.47992 6.14009 9.51802 6.2809 9.51802 6.41307V8.64573H9.07149V7.75266H1.927V8.64573H1.48047ZM5.72251 5.52001H8.62496V4.62695C8.62496 4.50043 8.5821 4.39445 8.49636 4.30902C8.41063 4.22358 8.30465 4.18072 8.17843 4.18042H6.16904C6.04253 4.18042 5.93655 4.22328 5.85111 4.30902C5.76568 4.39475 5.72281 4.50073 5.72251 4.62695V5.52001ZM2.37353 5.52001H5.27598V4.62695C5.27598 4.50043 5.23311 4.39445 5.14738 4.30902C5.06165 4.22358 4.95567 4.18072 4.82945 4.18042H2.82006C2.69354 4.18042 2.58757 4.22328 2.50213 4.30902C2.4167 4.39475 2.37383 4.50073 2.37353 4.62695V5.52001ZM1.927 7.30613H9.07149V6.41307C9.07149 6.28655 9.02863 6.18058 8.94289 6.09514C8.85716 6.00971 8.75118 5.96684 8.62496 5.96654H2.37353C2.24701 5.96654 2.14104 6.00941 2.0556 6.09514C1.97016 6.18088 1.9273 6.28685 1.927 6.41307V7.30613Z" fill="white"/>
</svg>
