<svg width="25" height="24" viewBox="0 0 25 24" fill="none" xmlns="http://www.w3.org/2000/svg">
<path fill-rule="evenodd" clip-rule="evenodd" d="M11.4979 11.4178V3.71482C11.4979 3.18305 11.929 2.75195 12.4607 2.75195C12.9925 2.75195 13.4236 3.18305 13.4236 3.71482V11.4178H21.1266C21.6584 11.4178 22.0895 11.8489 22.0895 12.3807C22.0895 12.9125 21.6584 13.3435 21.1266 13.3435H13.4236V21.0465C13.4236 21.5783 12.9925 22.0094 12.4607 22.0094C11.929 22.0094 11.4979 21.5783 11.4979 21.0465V13.3435H3.7949C3.26312 13.3435 2.83203 12.9125 2.83203 12.3807C2.83203 11.8489 3.26312 11.4178 3.7949 11.4178H11.4979Z" fill="white"/>
</svg>
