<svg width="12" height="12" viewBox="0 0 12 12" fill="none" xmlns="http://www.w3.org/2000/svg">
<path d="M4.20705 6.69449C4.25146 6.69449 4.29405 6.67684 4.32545 6.64544C4.35686 6.61404 4.3745 6.57145 4.3745 6.52704V5.79905H7.38858V6.60657C7.38858 6.65098 7.40622 6.69358 7.43763 6.72498C7.46903 6.75638 7.51162 6.77402 7.55603 6.77402C7.60044 6.77402 7.64303 6.75638 7.67443 6.72498C7.70584 6.69358 7.72348 6.65098 7.72348 6.60657V1.94772C7.72348 1.90331 7.70584 1.86072 7.67443 1.82932C7.64303 1.79792 7.60044 1.78027 7.55603 1.78027C7.51162 1.78027 7.46903 1.79792 7.43763 1.82932C7.40622 1.86072 7.38858 1.90331 7.38858 1.94772V2.78497H4.3745V1.94772C4.3745 1.90331 4.35686 1.86072 4.32545 1.82932C4.29405 1.79792 4.25146 1.78027 4.20705 1.78027C4.16264 1.78027 4.12005 1.79792 4.08864 1.82932C4.05724 1.86072 4.0396 1.90331 4.0396 1.94772V6.52704C4.0396 6.57145 4.05724 6.61404 4.08864 6.64544C4.12005 6.67684 4.16264 6.69449 4.20705 6.69449ZM4.3745 5.46415V4.45946H7.38858V5.46415H4.3745ZM7.38858 3.11987V4.12456H4.3745V3.11987H7.38858ZM1.69531 7.64099C1.69531 7.59658 1.71295 7.55399 1.74436 7.52259C1.77576 7.49118 1.81835 7.47354 1.86276 7.47354C2.41576 7.47354 2.70503 7.66653 2.96039 7.83649C3.20738 8.00101 3.42088 8.14334 3.87215 8.14334C4.32343 8.14334 4.53692 8.00101 4.78391 7.83649C5.03885 7.66653 5.32812 7.47354 5.88112 7.47354C6.43412 7.47354 6.72381 7.66653 6.97875 7.83649C7.22574 8.00101 7.43923 8.14334 7.89093 8.14334C8.34262 8.14334 8.5557 8.00101 8.80269 7.83649C9.05805 7.66653 9.3469 7.47354 9.90032 7.47354C9.94473 7.47354 9.98732 7.49118 10.0187 7.52259C10.0501 7.55399 10.0678 7.59658 10.0678 7.64099C10.0678 7.6854 10.0501 7.72799 10.0187 7.7594C9.98732 7.7908 9.94473 7.80844 9.90032 7.80844C9.44862 7.80844 9.23554 7.95077 8.98856 8.11529C8.7332 8.28525 8.44435 8.47824 7.89093 8.47824C7.33751 8.47824 7.04824 8.28525 6.7933 8.11529C6.54631 7.95077 6.33281 7.80844 5.88112 7.80844C5.42943 7.80844 5.21635 7.95077 4.96936 8.11529C4.71442 8.28525 4.42515 8.47824 3.87215 8.47824C3.31915 8.47824 3.02988 8.28525 2.77452 8.11529C2.52753 7.95077 2.31446 7.80844 1.86276 7.80844C1.81835 7.80844 1.77576 7.7908 1.74436 7.7594C1.71295 7.72799 1.69531 7.6854 1.69531 7.64099ZM10.0678 9.31548C10.0678 9.35989 10.0501 9.40248 10.0187 9.43389C9.98732 9.46529 9.94473 9.48293 9.90032 9.48293C9.44862 9.48293 9.23554 9.62526 8.98856 9.78978C8.7332 9.95974 8.44435 10.1527 7.89093 10.1527C7.33751 10.1527 7.04824 9.95974 6.7933 9.78978C6.54631 9.62526 6.33281 9.48293 5.88112 9.48293C5.42943 9.48293 5.21635 9.62526 4.96936 9.78978C4.71442 9.95974 4.42515 10.1527 3.87215 10.1527C3.31915 10.1527 3.02988 9.95974 2.77452 9.78978C2.52753 9.62526 2.31446 9.48293 1.86276 9.48293C1.81835 9.48293 1.77576 9.46529 1.74436 9.43389C1.71295 9.40248 1.69531 9.35989 1.69531 9.31548C1.69531 9.27107 1.71295 9.22848 1.74436 9.19708C1.77576 9.16567 1.81835 9.14803 1.86276 9.14803C2.41576 9.14803 2.70503 9.34102 2.96039 9.51098C3.20738 9.6755 3.42088 9.81783 3.87215 9.81783C4.32343 9.81783 4.53692 9.6755 4.78391 9.51098C5.03885 9.34102 5.32812 9.14803 5.88112 9.14803C6.43412 9.14803 6.72381 9.34102 6.97875 9.51098C7.22574 9.6755 7.43923 9.81783 7.89093 9.81783C8.34262 9.81783 8.5557 9.6755 8.80269 9.51098C9.05805 9.34102 9.3469 9.14803 9.90032 9.14803C9.94473 9.14803 9.98732 9.16567 10.0187 9.19708C10.0501 9.22848 10.0678 9.27107 10.0678 9.31548Z" fill="white"/>
</svg>
