<svg width="17" height="16" viewBox="0 0 17 16" fill="none" xmlns="http://www.w3.org/2000/svg">
<path d="M2.19938 7.35501C1.99403 7.16511 2.10558 6.8218 2.38333 6.78887L6.31894 6.32206C6.43215 6.30864 6.53047 6.23755 6.57822 6.13404L8.23821 2.53524C8.35536 2.28126 8.71642 2.28121 8.83358 2.53519L10.4936 6.13397C10.5413 6.23748 10.639 6.30876 10.7522 6.32218L14.688 6.78887C14.9658 6.8218 15.077 7.16521 14.8717 7.35511L11.9623 10.0461C11.8786 10.1235 11.8413 10.2387 11.8636 10.3505L12.6357 14.2377C12.6902 14.512 12.3982 14.7246 12.1542 14.588L8.69595 12.6517C8.59648 12.596 8.47564 12.5963 8.37617 12.652L4.91758 14.5875C4.67352 14.7241 4.38102 14.512 4.43553 14.2377L5.2078 10.3508C5.23001 10.239 5.19285 10.1235 5.10915 10.0461L2.19938 7.35501Z" fill="#FECA39" stroke="#FECA39" stroke-width="0.655545" stroke-linecap="round" stroke-linejoin="round"/>
</svg>
